<mxfile host="app.diagrams.net" modified="2024-03-28T16:48:58.984Z" agent="Mozilla/5.0 (Windows NT 10.0; Win64; x64) AppleWebKit/537.36 (KHTML, like Gecko) Chrome/123.0.0.0 Safari/537.36" etag="P3aTRAWjnVVmk87t43aw" version="24.2.1" type="github">
  <diagram name="Page-1" id="3FLBhx3xT8xbjWgwb9t2">
    <mxGraphModel dx="1050" dy="522" grid="1" gridSize="10" guides="1" tooltips="1" connect="1" arrows="1" fold="1" page="1" pageScale="1" pageWidth="827" pageHeight="1169" math="0" shadow="0">
      <root>
        <mxCell id="0" />
        <mxCell id="1" parent="0" />
        <mxCell id="02aBKbcoyw_JeskiQB5X-1" value="&lt;&lt; (D,orchid) Web User &gt;&gt;&#xa;User" style="swimlane;fontStyle=1;align=center;verticalAlign=top;childLayout=stackLayout;horizontal=1;startSize=41.7;horizontalStack=0;resizeParent=1;resizeParentMax=0;resizeLast=0;collapsible=0;marginBottom=0;" vertex="1" parent="1">
          <mxGeometry x="94" y="20" width="186" height="133.7" as="geometry" />
        </mxCell>
        <mxCell id="02aBKbcoyw_JeskiQB5X-2" style="line;strokeWidth=1;fillColor=none;align=left;verticalAlign=middle;spacingTop=-1;spacingLeft=3;spacingRight=3;rotatable=0;labelPosition=right;points=[];portConstraint=eastwest;strokeColor=inherit;" vertex="1" parent="02aBKbcoyw_JeskiQB5X-1">
          <mxGeometry y="41.7" width="186" height="8" as="geometry" />
        </mxCell>
        <mxCell id="02aBKbcoyw_JeskiQB5X-3" value="+AccessWebsite()" style="text;strokeColor=none;fillColor=none;align=left;verticalAlign=top;spacingLeft=4;spacingRight=4;overflow=hidden;rotatable=0;points=[[0,0.5],[1,0.5]];portConstraint=eastwest;" vertex="1" parent="02aBKbcoyw_JeskiQB5X-1">
          <mxGeometry y="49.7" width="186" height="28" as="geometry" />
        </mxCell>
        <mxCell id="02aBKbcoyw_JeskiQB5X-4" value="+EnterParameters()" style="text;strokeColor=none;fillColor=none;align=left;verticalAlign=top;spacingLeft=4;spacingRight=4;overflow=hidden;rotatable=0;points=[[0,0.5],[1,0.5]];portConstraint=eastwest;" vertex="1" parent="02aBKbcoyw_JeskiQB5X-1">
          <mxGeometry y="77.7" width="186" height="28" as="geometry" />
        </mxCell>
        <mxCell id="02aBKbcoyw_JeskiQB5X-5" value="+ViewChart()" style="text;strokeColor=none;fillColor=none;align=left;verticalAlign=top;spacingLeft=4;spacingRight=4;overflow=hidden;rotatable=0;points=[[0,0.5],[1,0.5]];portConstraint=eastwest;" vertex="1" parent="02aBKbcoyw_JeskiQB5X-1">
          <mxGeometry y="105.7" width="186" height="28" as="geometry" />
        </mxCell>
        <mxCell id="02aBKbcoyw_JeskiQB5X-6" value="&lt;&lt; (D,orchid) Web Browser &gt;&gt;&#xa;Browser" style="swimlane;fontStyle=1;align=center;verticalAlign=top;childLayout=stackLayout;horizontal=1;startSize=43.72499942779541;horizontalStack=0;resizeParent=1;resizeParentMax=0;resizeLast=0;collapsible=0;marginBottom=0;" vertex="1" parent="1">
          <mxGeometry x="20" y="235" width="211" height="109.72499942779541" as="geometry" />
        </mxCell>
        <mxCell id="02aBKbcoyw_JeskiQB5X-7" style="line;strokeWidth=1;fillColor=none;align=left;verticalAlign=middle;spacingTop=-1;spacingLeft=3;spacingRight=3;rotatable=0;labelPosition=right;points=[];portConstraint=eastwest;strokeColor=inherit;" vertex="1" parent="02aBKbcoyw_JeskiQB5X-6">
          <mxGeometry y="43.72499942779541" width="211" height="8" as="geometry" />
        </mxCell>
        <mxCell id="02aBKbcoyw_JeskiQB5X-8" value="+LoadTool()" style="text;strokeColor=none;fillColor=none;align=left;verticalAlign=top;spacingLeft=4;spacingRight=4;overflow=hidden;rotatable=0;points=[[0,0.5],[1,0.5]];portConstraint=eastwest;" vertex="1" parent="02aBKbcoyw_JeskiQB5X-6">
          <mxGeometry y="51.72499942779541" width="211" height="29" as="geometry" />
        </mxCell>
        <mxCell id="02aBKbcoyw_JeskiQB5X-9" value="+DisplayInterface()" style="text;strokeColor=none;fillColor=none;align=left;verticalAlign=top;spacingLeft=4;spacingRight=4;overflow=hidden;rotatable=0;points=[[0,0.5],[1,0.5]];portConstraint=eastwest;" vertex="1" parent="02aBKbcoyw_JeskiQB5X-6">
          <mxGeometry y="80.72499942779541" width="211" height="29" as="geometry" />
        </mxCell>
        <mxCell id="02aBKbcoyw_JeskiQB5X-10" value="&lt;&lt; (D,orchid) Client-Side Tool &gt;&gt;&#xa;AEC_Carbon_Projection_Tool" style="swimlane;fontStyle=1;align=center;verticalAlign=top;childLayout=stackLayout;horizontal=1;startSize=43.72499942779541;horizontalStack=0;resizeParent=1;resizeParentMax=0;resizeLast=0;collapsible=0;marginBottom=0;" vertex="1" parent="1">
          <mxGeometry x="200" y="428" width="235" height="109.72499942779541" as="geometry" />
        </mxCell>
        <mxCell id="02aBKbcoyw_JeskiQB5X-11" style="line;strokeWidth=1;fillColor=none;align=left;verticalAlign=middle;spacingTop=-1;spacingLeft=3;spacingRight=3;rotatable=0;labelPosition=right;points=[];portConstraint=eastwest;strokeColor=inherit;" vertex="1" parent="02aBKbcoyw_JeskiQB5X-10">
          <mxGeometry y="43.72499942779541" width="235" height="8" as="geometry" />
        </mxCell>
        <mxCell id="02aBKbcoyw_JeskiQB5X-12" value="-ProcessInputData()" style="text;strokeColor=none;fillColor=none;align=left;verticalAlign=top;spacingLeft=4;spacingRight=4;overflow=hidden;rotatable=0;points=[[0,0.5],[1,0.5]];portConstraint=eastwest;" vertex="1" parent="02aBKbcoyw_JeskiQB5X-10">
          <mxGeometry y="51.72499942779541" width="235" height="29" as="geometry" />
        </mxCell>
        <mxCell id="02aBKbcoyw_JeskiQB5X-13" value="-GenerateChart()" style="text;strokeColor=none;fillColor=none;align=left;verticalAlign=top;spacingLeft=4;spacingRight=4;overflow=hidden;rotatable=0;points=[[0,0.5],[1,0.5]];portConstraint=eastwest;" vertex="1" parent="02aBKbcoyw_JeskiQB5X-10">
          <mxGeometry y="80.72499942779541" width="235" height="29" as="geometry" />
        </mxCell>
        <mxCell id="02aBKbcoyw_JeskiQB5X-14" value="&lt;&lt; (D,orchid) Chart.js &gt;&gt;&#xa;Chart_js" style="swimlane;fontStyle=1;align=center;verticalAlign=top;childLayout=stackLayout;horizontal=1;startSize=47.099998474121094;horizontalStack=0;resizeParent=1;resizeParentMax=0;resizeLast=0;collapsible=0;marginBottom=0;" vertex="1" parent="1">
          <mxGeometry x="230" y="621" width="176" height="86.0999984741211" as="geometry" />
        </mxCell>
        <mxCell id="02aBKbcoyw_JeskiQB5X-15" style="line;strokeWidth=1;fillColor=none;align=left;verticalAlign=middle;spacingTop=-1;spacingLeft=3;spacingRight=3;rotatable=0;labelPosition=right;points=[];portConstraint=eastwest;strokeColor=inherit;" vertex="1" parent="02aBKbcoyw_JeskiQB5X-14">
          <mxGeometry y="47.099998474121094" width="176" height="8" as="geometry" />
        </mxCell>
        <mxCell id="02aBKbcoyw_JeskiQB5X-16" value="-RenderChart()" style="text;strokeColor=none;fillColor=none;align=left;verticalAlign=top;spacingLeft=4;spacingRight=4;overflow=hidden;rotatable=0;points=[[0,0.5],[1,0.5]];portConstraint=eastwest;" vertex="1" parent="02aBKbcoyw_JeskiQB5X-14">
          <mxGeometry y="55.099998474121094" width="176" height="31" as="geometry" />
        </mxCell>
        <mxCell id="02aBKbcoyw_JeskiQB5X-17" value="Uses" style="curved=1;startArrow=none;endArrow=open;endSize=12;exitX=0.5016569345483283;exitY=0.999999984741211;entryX=0.002072825330369016;entryY=0.02973545662986044;rounded=0;" edge="1" parent="1" source="02aBKbcoyw_JeskiQB5X-6" target="02aBKbcoyw_JeskiQB5X-10">
          <mxGeometry relative="1" as="geometry">
            <Array as="points">
              <mxPoint x="126" y="394" />
            </Array>
          </mxGeometry>
        </mxCell>
        <mxCell id="02aBKbcoyw_JeskiQB5X-18" value="Uses" style="curved=1;startArrow=none;endArrow=open;endSize=12;exitX=0.501404620231466;exitY=0.9999999694824219;entryX=0.49903457814996893;entryY=0.0039215274885589;rounded=0;" edge="1" parent="1" source="02aBKbcoyw_JeskiQB5X-10" target="02aBKbcoyw_JeskiQB5X-14">
          <mxGeometry relative="1" as="geometry">
            <Array as="points" />
          </mxGeometry>
        </mxCell>
        <mxCell id="02aBKbcoyw_JeskiQB5X-19" value="Interacts with" style="curved=1;startArrow=none;endArrow=open;endSize=12;exitX=0.051869452246195054;exitY=1;entryX=0.3154947473241309;entryY=0.0031999969482421876;rounded=0;" edge="1" parent="1" source="02aBKbcoyw_JeskiQB5X-1" target="02aBKbcoyw_JeskiQB5X-6">
          <mxGeometry relative="1" as="geometry">
            <Array as="points">
              <mxPoint x="65" y="201" />
            </Array>
          </mxGeometry>
        </mxCell>
        <mxCell id="02aBKbcoyw_JeskiQB5X-20" value="Interacts with" style="curved=1;startArrow=none;endArrow=open;endSize=12;exitX=0.9795035509786973;exitY=1;entryX=0.501404620231466;entryY=0.003199981689453125;rounded=0;" edge="1" parent="1" source="02aBKbcoyw_JeskiQB5X-1" target="02aBKbcoyw_JeskiQB5X-10">
          <mxGeometry relative="1" as="geometry">
            <Array as="points">
              <mxPoint x="318" y="201" />
            </Array>
          </mxGeometry>
        </mxCell>
        <mxCell id="02aBKbcoyw_JeskiQB5X-21" value="Sends result" style="curved=1;startArrow=none;endArrow=open;endSize=12;exitX=0.6753828320088167;exitY=0.003199981689453125;entryX=1.00207163372311;entryY=0.8208736129390627;rounded=0;" edge="1" parent="1" source="02aBKbcoyw_JeskiQB5X-10" target="02aBKbcoyw_JeskiQB5X-6">
          <mxGeometry relative="1" as="geometry">
            <Array as="points">
              <mxPoint x="381" y="394" />
            </Array>
          </mxGeometry>
        </mxCell>
        <mxCell id="02aBKbcoyw_JeskiQB5X-22" value="Displays result" style="curved=1;startArrow=none;endArrow=open;endSize=12;exitX=0.6878191217725257;exitY=0.0031999969482421876;entryX=0.4983493230676138;entryY=1;rounded=0;" edge="1" parent="1" source="02aBKbcoyw_JeskiQB5X-6" target="02aBKbcoyw_JeskiQB5X-1">
          <mxGeometry relative="1" as="geometry">
            <Array as="points">
              <mxPoint x="187" y="201" />
            </Array>
          </mxGeometry>
        </mxCell>
      </root>
    </mxGraphModel>
  </diagram>
</mxfile>
